<svg xmlns="http://www.w3.org/2000/svg" version="1.1" xmlns:xlink="http://www.w3.org/1999/xlink" width="1000" height="1000"><g clip-path="url(#SvgjsClipPath2399)"><rect width="1000" height="1000" fill="#302e2e"></rect><g transform="matrix(4.5,0,0,4.5,50,117.5)"><svg xmlns="http://www.w3.org/2000/svg" version="1.1" xmlns:xlink="http://www.w3.org/1999/xlink" width="200" height="170"><svg xmlns="http://www.w3.org/2000/svg" viewBox="20 35 200 170" fill="none"><g stroke="#fff" fill="#fff" opacity=".4" stroke-width="3"><path fill="none" d="m120 50 60 35v70l-60 35-60-35V85l60-35"></path><path d="M120 50v70m60-35-60 35m60 35-60-35m0 70v-70m-60 35 60-35M60 85l60 35"></path><circle cx="120" cy="50" r="7"></circle><circle cx="180" cy="85" r="7"></circle><circle cx="180" cy="155" r="7"></circle><circle cx="120" cy="190" r="7"></circle><circle cx="60" cy="155" r="7"></circle><circle cx="60" cy="85" r="7"></circle><circle cx="120" cy="120" r="10"></circle></g><path d="M30 120h55l15-65 20 130 20-100 15 35h55" stroke="#fff" stroke-width="8" stroke-linecap="round" stroke-linejoin="round"></path></svg></svg></g></g><defs><clipPath id="SvgjsClipPath2399"><rect width="1000" height="1000" x="0" y="0" rx="350" ry="350"></rect></clipPath></defs></svg>